PathFileType	4	(X/Y/Z)	Kaydara																																																																																																																									
DataRate	CameraRate	NumFrames	NumMarkers	Units	OrigDataRate	OrigDataStartFrame	OrigNumFrames																																																																																																																					
30	30	7	41	mm	30	75	198																																																																																																																					
Frame#	Time	NABA_LFHD			NABA_RFHD			NABA_LBHD			NABA_RBHD			NABA_LFTShould			NABA_RFTShould			NABA_LRRShould			NABA_RRRShould			NABA_T10			NABA_STRN			NABA_TRUN			NABA_LSHO			NABA_LUPA			NABA_LELB			NABA_LFRM			NABA_LWRA			NABA_LWRB			NABA_LFIN			NABA_RSHO			NABA_RUPA			NABA_RELB			NABA_RFRM			NABA_RWRA			NABA_RWRB			NABA_RFIN			NABA_LFWT			NABA_RFWT			NABA_LBWT			NABA_RBWT			NABA_LTHI			NABA_LKNE			NABA_LSHN			NABA_LANK			NABA_LHEE			NABA_LTOE			NABA_RTHI			NABA_RKNE			NABA_RSHN			NABA_RANK			NABA_RHEE			NABA_RTOE		
		X1	Y1	Z1	X2	Y2	Z2	X3	Y3	Z3	X4	Y4	Z4	X5	Y5	Z5	X6	Y6	Z6	X7	Y7	Z7	X8	Y8	Z8	X9	Y9	Z9	X10	Y10	Z10	X11	Y11	Z11	X12	Y12	Z12	X13	Y13	Z13	X14	Y14	Z14	X15	Y15	Z15	X16	Y16	Z16	X17	Y17	Z17	X18	Y18	Z18	X19	Y19	Z19	X20	Y20	Z20	X21	Y21	Z21	X22	Y22	Z22	X23	Y23	Z23	X24	Y24	Z24	X25	Y25	Z25	X26	Y26	Z26	X27	Y27	Z27	X28	Y28	Z28	X29	Y29	Z29	X30	Y30	Z30	X31	Y31	Z31	X32	Y32	Z32	X33	Y33	Z33	X34	Y34	Z34	X35	Y35	Z35	X36	Y36	Z36	X37	Y37	Z37	X38	Y38	Z38	X39	Y39	Z39	X40	Y40	Z40	X41	Y41	Z41
																																																																																																																												
75	2.477	253.46224	1604.18732	-1283.97339	83.51977	1593.36563	-1255.08751	263.87972	1564.96414	-1404.24393	47.7132	1571.01852	-1348.02628	232.7284	1326.08551	-1293.18756	97.36548	1325.57251	-1294.90784	235.06912	1380.76111	-1413.9798	84.5032	1380.62088	-1405.82047	163.06911	1219.33029	-1485.35904	163.97303	1269.67484	-1248.95561	161.62987	1172.04979	-1203.17635	332.74925	1342.65427	-1346.46896	376.0701	1118.81866	-1424.50256	388.69377	1032.99637	-1416.84464	378.17127	968.44597	-1453.66699	334.04831	805.17288	-1409.18793	404.56493	808.63022	-1418.38409	390.01282	741.59447	-1386.85379	3.68148	1350.94772	-1341.50696	-60.30135	1151.41563	-1406.75659	-93.30285	1030.68558	-1361.85379	-99.34021	935.06905	-1344.97131	-31.52472	817.60765	-1257.41714	-105.40624	809.4429	-1252.95753	-89.96116	779.05594	-1215.54619	280.85289	936.15944	-1291.26541	17.08722	944.30916	-1301.00479	235.79485	1009.10591	-1461.44073	72.58349	1029.37088	-1468.26172	287.31339	633.78983	-1366.99081	280.22305	502.97729	-1272.72072	233.84592	329.28043	-1350.02533	267.34259	262.55976	-1502.42798	209.47153	262.67994	-1574.63531	252.53773	111.57635	-1469.0802	25.92278	661.67244	-1444.01031	51.46952	502.64458	-1330.88409	71.96613	329.30492	-1346.73096	72.48699	136.25435	-1409.34677	123.95332	91.51215	-1479.16641	99.975	69.68283	-1285.52689
76	2.51	252.33807	1603.45993	-1252.40524	82.57277	1591.28036	-1223.29735	262.59771	1566.38763	-1373.40012	46.54227	1570.24323	-1316.51947	233.46546	1326.85638	-1266.0527	97.88451	1326.55106	-1264.84535	232.50385	1379.89288	-1387.15118	82.50507	1379.77692	-1375.74387	159.02929	1217.56996	-1455.60501	165.222	1271.06247	-1219.70993	163.74432	1173.73245	-1173.35373	332.06108	1342.53937	-1322.40463	373.04443	1119.62814	-1402.211	386.00296	1033.62473	-1395.30396	373.92277	968.55057	-1430.99701	329.01814	806.29768	-1383.85559	399.49726	808.81737	-1394.80179	383.98853	741.48361	-1363.04733	3.16391	1351.12473	-1309.36981	-60.47042	1148.99887	-1367.16461	-93.4271	1030.22202	-1317.79099	-99.42865	935.41161	-1296.22421	-32.26101	822.77679	-1201.84288	-106.37325	814.64035	-1197.94174	-91.28493	786.14738	-1158.90099	279.56364	937.7993	-1257.2789	16.18448	942.35794	-1269.92699	234.54506	1007.64717	-1429.10858	71.03156	1027.30812	-1435.60852	286.33844	635.67665	-1314.2897	274.40975	512.03575	-1211.13747	227.18874	328.08388	-1265.85953	259.20313	239.50207	-1407.15149	200.1297	227.52756	-1478.27713	248.02769	99.88693	-1348.69232	26.43624	663.10684	-1419.53522	51.95708	499.27059	-1314.38278	72.47685	326.71818	-1337.30499	73.04731	136.12233	-1406.86569	124.17177	93.24232	-1479.01535	99.78458	69.75026	-1285.40863
77	2.543	251.9817	1601.21338	-1221.13571	82.36829	1588.12622	-1191.47697	261.83237	1565.72601	-1342.6712	46.06257	1568.08182	-1284.80789	233.94636	1325.89935	-1237.39784	98.44442	1325.47119	-1233.56964	230.36211	1377.33856	-1358.98331	80.87876	1377.52701	-1344.45541	155.4944	1214.51241	-1424.56207	166.91599	1270.86067	-1189.45953	165.84757	1173.64204	-1141.84128	331.37024	1340.49515	-1296.06415	370.10193	1118.29994	-1378.15887	383.2325	1032.17751	-1371.49323	369.8761	966.5358	-1406.39023	325.22182	805.23987	-1356.54068	395.6012	807.2139	-1369.27765	379.51744	739.66507	-1336.92093	2.97528	1349.82864	-1276.20781	-60.33074	1145.30426	-1327.33246	-92.83908	1028.57826	-1273.87802	-98.88098	934.6534	-1248.71887	-31.77764	826.31737	-1148.98834	-106.1052	817.79411	-1144.56299	-91.1297	791.30783	-1105.33073	278.25344	937.41203	-1224.43062	15.19628	939.98871	-1234.89197	232.88969	1005.4763	-1396.36993	70.00599	1024.42116	-1401.46576	285.84059	637.26013	-1267.02065	270.27275	518.85731	-1158.01605	222.14119	325.88345	-1184.61624	253.06435	212.96446	-1307.3616	193.83137	188.35655	-1375.23804	241.39864	88.47712	-1223.90266	26.72064	663.69583	-1395.2536	51.97816	495.38734	-1297.50748	72.95576	323.86978	-1328.25272	73.64468	136.0937	-1404.63013	125.28423	94.61013	-1477.46323	99.23823	69.57533	-1285.65903
78	2.577	252.41226	1596.94717	-1189.82552	82.95056	1583.83011	-1159.40315	261.6749	1561.97601	-1311.62018	46.17332	1564.16824	-1252.61398	234.87101	1322.9039	-1206.65085	99.12214	1322.09793	-1200.88737	228.7335	1372.77466	-1328.9415	79.73768	1373.37524	-1311.6925	152.57038	1209.76227	-1392.07275	168.29676	1268.36617	-1157.06444	167.91563	1171.2233	-1108.75458	330.99056	1336.04492	-1267.98157	367.04266	1114.65462	-1351.55731	380.54935	1028.53004	-1345.4866	366.11744	962.44965	-1379.83444	322.85511	801.66405	-1327.38098	392.45789	803.07419	-1342.06558	377.0874	736.03569	-1308.8208	3.0163	1346.29883	-1242.11151	-60.88352	1140.02365	-1287.79297	-92.13083	1025.06912	-1230.66017	-97.77916	931.97769	-1202.27875	-29.83797	827.3851	-1099.1198	-104.22538	818.92624	-1094.09546	-89.17939	794.1375	-1053.89435	278.12958	934.32961	-1190.44014	14.82697	935.42564	-1200.97771	232.33656	1001.77094	-1362.69608	69.24675	1020.56625	-1367.64069	283.21606	636.90536	-1224.89738	268.05983	520.76908	-1113.54744	219.01165	324.06521	-1106.93825	248.32155	187.97028	-1204.71565	188.98933	151.01912	-1266.90353	234.82552	83.43081	-1097.31468	27.2455	662.58919	-1369.14291	52.05624	490.68859	-1277.96555	73.82943	320.26119	-1316.56693	74.6506	135.98404	-1401.20529	126.96645	97.06323	-1475.65628	99.30943	69.23376	-1285.85953
79	2.61	253.48869	1591.06491	-1158.15628	84.23217	1578.5202	-1126.64291	262.04121	1555.56168	-1279.83109	46.89672	1558.52661	-1219.7538	235.71316	1316.64917	-1174.73587	100.10989	1316.30264	-1166.85181	228.11726	1366.94183	-1296.96625	79.16702	1367.53403	-1277.54074	150.89996	1203.64441	-1358.57803	169.70308	1262.69348	-1123.66676	169.62164	1165.65392	-1074.89182	331.11893	1329.75327	-1237.16446	364.08974	1108.75671	-1322.70416	378.10368	1022.75002	-1317.26974	362.71042	956.42441	-1351.07162	321.88301	795.66948	-1296.3446	390.79002	797.17239	-1313.71918	377.2673	730.51132	-1279.56932	3.55547	1340.59723	-1206.56456	-61.60679	1133.60313	-1248.45108	-91.69847	1019.77676	-1188.54271	-96.691	927.35878	-1157.51076	-26.70431	825.93239	-1052.48672	-101.12144	817.44682	-1045.79025	-85.49996	793.95645	-1005.39337	278.57122	928.83278	-1155.78148	15.20948	929.12712	-1165.59875	232.53183	995.90805	-1328.29437	69.25302	1014.5031	-1332.84073	280.49458	631.57585	-1190.03441	267.78421	516.34411	-1076.71227	217.92984	323.02971	-1036.46301	245.00097	169.29379	-1103.65334	185.18291	120.96054	-1156.73889	231.59657	88.29757	-976.7482	28.46014	659.97726	-1341.27472	52.62205	484.9202	-1256.2075	75.40704	315.91496	-1303.26508	76.85874	135.95698	-1397.00592	130.30096	100.75429	-1473.25287	99.33886	69.08875	-1285.2713
80	2.643	255.14267	1584.00223	-1125.76004	85.90238	1572.26608	-1093.25745	262.97812	1547.33978	-1247.09908	48.18934	1551.53534	-1186.054	236.84799	1308.76144	-1140.80101	101.36646	1308.82629	-1131.4994	228.29012	1359.45496	-1263.18497	79.36038	1360.27771	-1242.24869	150.51384	1196.19598	-1323.80905	171.2207	1254.478	-1089.55544	171.34693	1157.49359	-1041.11855	331.71062	1321.9165	-1204.12895	362.32506	1100.88806	-1290.97107	376.57318	1014.92714	-1285.94971	360.50232	948.72665	-1319.53903	322.32853	787.70508	-1263.78624	390.56229	789.57161	-1283.27927	379.78203	723.29613	-1248.99162	4.61543	1333.17017	-1170.1339	-61.74683	1125.94734	-1209.24774	-91.69107	1013.12004	-1147.60086	-95.61225	920.62859	-1113.94302	-22.79001	822.09846	-1009.03137	-96.86075	813.40034	-1000.81306	-80.21759	790.88272	-959.90822	279.835	921.22604	-1119.90082	15.47845	921.61797	-1130.2491	232.81727	988.13492	-1292.73041	69.59516	1007.41325	-1296.65619	279.69685	621.48174	-1159.08516	268.69709	505.64857	-1045.89096	218.68622	322.88364	-974.60419	243.36079	158.90205	-1010.67192	182.06833	101.77369	-1052.23045	232.14592	102.73073	-869.10728	30.72335	657.63237	-1312.50183	52.35385	479.4331	-1233.06244	76.28054	311.93499	-1288.75	79.05245	137.63919	-1392.57339	133.83057	106.0561	-1469.95026	99.79787	68.90922	-1284.92371
81	2.677	257.29689	1576.8042	-1092.36351	88.07396	1566.08047	-1058.84491	264.44145	1538.88107	-1213.4182	49.96513	1544.52988	-1151.37566	238.48125	1300.68481	-1105.22148	103.04594	1300.57129	-1095.0193	229.29333	1351.87607	-1227.67967	80.10137	1352.9509	-1205.77362	151.25069	1188.60634	-1287.7034	173.0295	1245.55466	-1053.98689	173.8608	1148.96248	-1005.80528	332.97035	1313.71918	-1169.25667	362.41516	1091.91139	-1256.26602	376.86783	1006.14151	-1251.15494	360.5275	940.20409	-1284.80743	324.03446	778.54996	-1229.65233	391.98421	781.01044	-1250.10727	382.39964	714.73068	-1216.01685	6.30979	1324.83963	-1132.69043	-61.05291	1117.67044	-1170.86143	-91.43703	1005.59311	-1108.02467	-94.47688	913.20938	-1073.11157	-18.70724	816.05659	-969.02573	-91.89064	807.42912	-958.51868	-73.81083	785.1902	-918.35312	281.3802	912.86209	-1081.80817	16.45216	915.25772	-1092.58308	234.66959	980.1812	-1255.03685	71.34564	1000.66818	-1259.16954	279.45826	610.68233	-1126.13899	271.76771	492.08973	-1016.52901	220.13691	323.06454	-922.52655	242.43462	155.48936	-932.37839	179.57184	93.76291	-964.18175	232.40416	119.21821	-782.57004	32.4221	655.28999	-1280.70374	50.17854	474.5459	-1206.11107	74.68614	308.51959	-1271.01486	78.56868	141.70612	-1386.577	133.85879	114.78243	-1465.53543	98.96727	68.57659	-1284.07562
